<svg width="221" height="48" viewBox="0 0 221 48" fill="none" xmlns="http://www.w3.org/2000/svg">
<g id="CTIC" clip-path="url(#clip0_115_961)">
<path id="Vector" fill-rule="evenodd" clip-rule="evenodd" d="M83.4767 36.2268C85.0699 37.9084 86.9944 39.2415 89.1286 40.1422C91.2628 41.0428 93.5605 41.4914 95.8767 41.4596C97.6683 41.4679 99.4516 41.2173 101.172 40.7156C102.881 40.2121 104.501 39.4421 105.97 38.434L104.904 45.2044C103.549 45.7564 102.152 46.196 100.725 46.5188C99.0941 46.8589 97.4311 47.021 95.7651 47.0024C92.7247 47.0514 89.7065 46.4757 86.8975 45.3112C84.0884 44.1466 81.5483 42.4179 79.4343 40.232C77.2601 38.113 75.544 35.5703 74.3922 32.7612C73.2405 29.9522 72.6775 26.9366 72.7383 23.9012C72.6892 20.8674 73.2575 17.8553 74.4086 15.0479C75.5597 12.2405 77.2696 9.69647 79.4343 7.5704C81.5426 5.39066 84.0746 3.6655 86.8746 2.50114C89.6747 1.33677 92.6834 0.757847 95.7155 0.799998C96.9966 0.846861 98.2728 0.983599 99.5347 1.2092C100.528 1.33195 101.508 1.54783 102.461 1.85401L103.602 8.14081C102.554 7.57142 101.431 7.15391 100.266 6.90081C98.7949 6.58527 97.2948 6.4232 95.7899 6.41721C93.4806 6.37042 91.1866 6.80239 89.0525 7.68592C86.9184 8.56945 84.9904 9.88538 83.3899 11.5508C81.7178 13.1708 80.3935 15.1147 79.498 17.2638C78.6026 19.4129 78.1548 21.722 78.1819 24.05C78.2176 26.3286 78.7038 28.5776 79.6125 30.6675C80.5213 32.7574 81.8346 34.6467 83.4767 36.2268Z" fill="#085EA7"/>
<path id="Vector_2" fill-rule="evenodd" clip-rule="evenodd" d="M112.27 6.83856L112.356 1.61816H139.86V6.75176H128.873V42.9226L123.343 46.5186V6.83856H112.27Z" fill="#085EA7"/>
<path id="Vector_3" fill-rule="evenodd" clip-rule="evenodd" d="M181.511 46.4319L175.981 43.3318V14.1051L146.221 46.4319V1.04785L151.751 3.40385V32.7175L181.511 1.04785V46.4319Z" fill="#085EA7"/>
<path id="Vector_4" fill-rule="evenodd" clip-rule="evenodd" d="M198.474 36.2268C200.067 37.9084 201.992 39.2415 204.126 40.1422C206.26 41.0428 208.558 41.4914 210.874 41.4596C212.666 41.4725 214.45 41.2218 216.169 40.7156C217.879 40.2121 219.498 39.4421 220.968 38.434L219.901 45.2044C218.559 45.7545 217.174 46.1941 215.76 46.5188C214.129 46.8589 212.466 47.021 210.8 47.0024C207.768 47.0446 204.759 46.4656 201.959 45.3013C199.159 44.1369 196.627 42.4117 194.519 40.232C192.336 38.1173 190.61 35.5764 189.45 32.7672C188.289 29.9579 187.719 26.9402 187.773 23.9012C187.73 20.8638 188.306 17.8496 189.466 15.042C190.626 12.2344 192.345 9.69226 194.519 7.5704C196.627 5.39066 199.159 3.6655 201.959 2.50114C204.759 1.33677 207.768 0.757847 210.8 0.799998C212.081 0.846861 213.357 0.983599 214.619 1.2092C215.613 1.33195 216.592 1.54783 217.545 1.85401L218.686 8.14081C217.639 7.57142 216.516 7.15391 215.351 6.90081C213.879 6.58527 212.379 6.4232 210.874 6.41721C208.565 6.37042 206.271 6.80239 204.137 7.68592C202.003 8.56945 200.075 9.88538 198.474 11.5508C196.788 13.1603 195.455 15.1023 194.559 17.2539C193.662 19.4054 193.222 21.7196 193.266 24.05C193.291 26.3225 193.763 28.5678 194.657 30.6574C195.551 32.7469 196.848 34.6395 198.474 36.2268Z" fill="#085EA7"/>
<path id="Vector_5" d="M83.4767 36.2268C85.0699 37.9084 86.9944 39.2415 89.1286 40.1422C91.2628 41.0428 93.5605 41.4914 95.8767 41.4596C97.6683 41.4679 99.4516 41.2173 101.172 40.7156C102.881 40.2121 104.501 39.4421 105.97 38.434L104.904 45.2044C103.549 45.7564 102.152 46.196 100.725 46.5188C99.0941 46.8589 97.4311 47.021 95.7651 47.0024C92.7247 47.0514 89.7065 46.4757 86.8975 45.3112C84.0884 44.1466 81.5483 42.4179 79.4343 40.232C77.2601 38.113 75.544 35.5703 74.3922 32.7612C73.2405 29.9522 72.6775 26.9366 72.7383 23.9012C72.6892 20.8674 73.2575 17.8553 74.4086 15.0479C75.5597 12.2405 77.2696 9.69647 79.4343 7.5704C81.5426 5.39066 84.0746 3.6655 86.8746 2.50114C89.6747 1.33677 92.6834 0.757847 95.7155 0.799998C96.9966 0.846861 98.2728 0.983599 99.5347 1.2092C100.528 1.33195 101.508 1.54783 102.461 1.85401L103.602 8.14081C102.554 7.57142 101.431 7.15391 100.266 6.90081C98.7949 6.58527 97.2948 6.4232 95.7899 6.41721C93.4806 6.37042 91.1866 6.80239 89.0525 7.68592C86.9184 8.56945 84.9904 9.88538 83.3899 11.5508C81.7178 13.1708 80.3935 15.1147 79.498 17.2638C78.6026 19.4129 78.1548 21.722 78.1819 24.05C78.2176 26.3286 78.7038 28.5776 79.6125 30.6675C80.5213 32.7574 81.8346 34.6467 83.4767 36.2268Z" fill="#085EA7"/>
<path id="Vector_6" d="M83.4767 36.2268C85.0699 37.9084 86.9944 39.2415 89.1286 40.1422C91.2628 41.0428 93.5605 41.4914 95.8767 41.4596C97.6683 41.4679 99.4516 41.2173 101.172 40.7156C102.881 40.2121 104.501 39.4421 105.97 38.434L104.904 45.2044C103.549 45.7564 102.152 46.196 100.725 46.5188C99.0941 46.8589 97.4311 47.021 95.7651 47.0024C92.7247 47.0514 89.7065 46.4757 86.8975 45.3112C84.0884 44.1466 81.5483 42.4179 79.4343 40.232C77.2601 38.113 75.544 35.5703 74.3922 32.7612C73.2405 29.9522 72.6775 26.9366 72.7383 23.9012C72.6892 20.8674 73.2575 17.8553 74.4086 15.0479C75.5597 12.2405 77.2696 9.69647 79.4343 7.5704C81.5426 5.39066 84.0746 3.6655 86.8746 2.50114C89.6747 1.33677 92.6834 0.757847 95.7155 0.799998C96.9966 0.846861 98.2728 0.983599 99.5347 1.2092C100.528 1.33195 101.508 1.54783 102.461 1.85401L103.602 8.14081C102.554 7.57142 101.431 7.15391 100.266 6.90081C98.7949 6.58527 97.2948 6.4232 95.7899 6.41721C93.4806 6.37042 91.1866 6.80239 89.0525 7.68592C86.9184 8.56945 84.9904 9.88538 83.3899 11.5508C81.7178 13.1708 80.3935 15.1147 79.498 17.2638C78.6026 19.4129 78.1548 21.722 78.1819 24.05C78.2176 26.3286 78.7038 28.5776 79.6125 30.6675C80.5213 32.7574 81.8346 34.6467 83.4767 36.2268Z" fill="#085EA7"/>
<path id="Vector_7" d="M83.4767 36.2268C85.0699 37.9084 86.9944 39.2415 89.1286 40.1422C91.2628 41.0428 93.5605 41.4914 95.8767 41.4596C97.6683 41.4679 99.4516 41.2173 101.172 40.7156C102.881 40.2121 104.501 39.4421 105.97 38.434L104.904 45.2044C103.549 45.7564 102.152 46.196 100.725 46.5188C99.0941 46.8589 97.4311 47.021 95.7651 47.0024C92.7247 47.0514 89.7065 46.4757 86.8975 45.3112C84.0884 44.1466 81.5483 42.4179 79.4343 40.232C77.2601 38.113 75.544 35.5703 74.3922 32.7612C73.2405 29.9522 72.6775 26.9366 72.7383 23.9012C72.6892 20.8674 73.2575 17.8553 74.4086 15.0479C75.5597 12.2405 77.2696 9.69647 79.4343 7.5704C81.5426 5.39066 84.0746 3.6655 86.8746 2.50114C89.6747 1.33677 92.6834 0.757847 95.7155 0.799998C96.9966 0.846861 98.2728 0.983599 99.5347 1.2092C100.528 1.33195 101.508 1.54783 102.461 1.85401L103.602 8.14081C102.554 7.57142 101.431 7.15391 100.266 6.90081C98.7949 6.58527 97.2948 6.4232 95.7899 6.41721C93.4806 6.37042 91.1866 6.80239 89.0525 7.68592C86.9184 8.56945 84.9904 9.88538 83.3899 11.5508C81.7178 13.1708 80.3935 15.1147 79.498 17.2638C78.6026 19.4129 78.1548 21.722 78.1819 24.05C78.2176 26.3286 78.7038 28.5776 79.6125 30.6675C80.5213 32.7574 81.8346 34.6467 83.4767 36.2268Z" fill="#085EA7"/>
<path id="Vector_8" d="M112.27 6.83856L112.356 1.61816H139.86V6.75176H128.873V42.9226L123.343 46.5186V6.83856H112.27Z" fill="#085EA7"/>
<path id="Vector_9" d="M112.27 6.83856L112.356 1.61816H139.86V6.75176H128.873V42.9226L123.343 46.5186V6.83856H112.27Z" fill="#085EA7"/>
<path id="Vector_10" d="M112.27 6.83856L112.356 1.61816H139.86V6.75176H128.873V42.9226L123.343 46.5186V6.83856H112.27Z" fill="#085EA7"/>
<path id="Vector_11" d="M181.511 46.4319L175.981 43.3318V14.1051L146.221 46.4319V1.04785L151.751 3.40385V32.7175L181.511 1.04785V46.4319Z" fill="#085EA7"/>
<path id="Vector_12" d="M181.511 46.4319L175.981 43.3318V14.1051L146.221 46.4319V1.04785L151.751 3.40385V32.7175L181.511 1.04785V46.4319Z" fill="#085EA7"/>
<path id="Vector_13" d="M181.511 46.4319L175.981 43.3318V14.1051L146.221 46.4319V1.04785L151.751 3.40385V32.7175L181.511 1.04785V46.4319Z" fill="#085EA7"/>
<path id="Vector_14" d="M198.474 36.2268C200.067 37.9084 201.992 39.2415 204.126 40.1422C206.26 41.0428 208.558 41.4914 210.874 41.4596C212.666 41.4725 214.45 41.2218 216.169 40.7156C217.879 40.2121 219.498 39.4421 220.968 38.434L219.901 45.2044C218.559 45.7545 217.174 46.1941 215.76 46.5188C214.129 46.8589 212.466 47.021 210.8 47.0024C207.768 47.0446 204.759 46.4656 201.959 45.3013C199.159 44.1369 196.627 42.4117 194.519 40.232C192.336 38.1173 190.61 35.5764 189.45 32.7672C188.289 29.9579 187.719 26.9402 187.773 23.9012C187.73 20.8638 188.306 17.8496 189.466 15.042C190.626 12.2344 192.345 9.69226 194.519 7.5704C196.627 5.39066 199.159 3.6655 201.959 2.50114C204.759 1.33677 207.768 0.757847 210.8 0.799998C212.081 0.846861 213.357 0.983599 214.619 1.2092C215.613 1.33195 216.592 1.54783 217.545 1.85401L218.686 8.14081C217.639 7.57142 216.516 7.15391 215.351 6.90081C213.879 6.58527 212.379 6.4232 210.874 6.41721C208.565 6.37042 206.271 6.80239 204.137 7.68592C202.003 8.56945 200.075 9.88538 198.474 11.5508C196.788 13.1603 195.455 15.1023 194.559 17.2539C193.662 19.4054 193.222 21.7196 193.266 24.05C193.291 26.3225 193.763 28.5678 194.657 30.6574C195.551 32.7469 196.848 34.6395 198.474 36.2268Z" fill="#085EA7"/>
<path id="Vector_15" d="M198.474 36.2268C200.067 37.9084 201.992 39.2415 204.126 40.1422C206.26 41.0428 208.558 41.4914 210.874 41.4596C212.666 41.4725 214.45 41.2218 216.169 40.7156C217.879 40.2121 219.498 39.4421 220.968 38.434L219.901 45.2044C218.559 45.7545 217.174 46.1941 215.76 46.5188C214.129 46.8589 212.466 47.021 210.8 47.0024C207.768 47.0446 204.759 46.4656 201.959 45.3013C199.159 44.1369 196.627 42.4117 194.519 40.232C192.336 38.1173 190.61 35.5764 189.45 32.7672C188.289 29.9579 187.719 26.9402 187.773 23.9012C187.73 20.8638 188.306 17.8496 189.466 15.042C190.626 12.2344 192.345 9.69226 194.519 7.5704C196.627 5.39066 199.159 3.6655 201.959 2.50114C204.759 1.33677 207.768 0.757847 210.8 0.799998C212.081 0.846861 213.357 0.983599 214.619 1.2092C215.613 1.33195 216.592 1.54783 217.545 1.85401L218.686 8.14081C217.639 7.57142 216.516 7.15391 215.351 6.90081C213.879 6.58527 212.379 6.4232 210.874 6.41721C208.565 6.37042 206.271 6.80239 204.137 7.68592C202.003 8.56945 200.075 9.88538 198.474 11.5508C196.788 13.1603 195.455 15.1023 194.559 17.2539C193.662 19.4054 193.222 21.7196 193.266 24.05C193.291 26.3225 193.763 28.5678 194.657 30.6574C195.551 32.7469 196.848 34.6395 198.474 36.2268Z" fill="#085EA7"/>
<path id="Vector_16" d="M198.474 36.2268C200.067 37.9084 201.992 39.2415 204.126 40.1422C206.26 41.0428 208.558 41.4914 210.874 41.4596C212.666 41.4725 214.45 41.2218 216.169 40.7156C217.879 40.2121 219.498 39.4421 220.968 38.434L219.901 45.2044C218.559 45.7545 217.174 46.1941 215.76 46.5188C214.129 46.8589 212.466 47.021 210.8 47.0024C207.768 47.0446 204.759 46.4656 201.959 45.3013C199.159 44.1369 196.627 42.4117 194.519 40.232C192.336 38.1173 190.61 35.5764 189.45 32.7672C188.289 29.9579 187.719 26.9402 187.773 23.9012C187.73 20.8638 188.306 17.8496 189.466 15.042C190.626 12.2344 192.345 9.69226 194.519 7.5704C196.627 5.39066 199.159 3.6655 201.959 2.50114C204.759 1.33677 207.768 0.757847 210.8 0.799998C212.081 0.846861 213.357 0.983599 214.619 1.2092C215.613 1.33195 216.592 1.54783 217.545 1.85401L218.686 8.14081C217.639 7.57142 216.516 7.15391 215.351 6.90081C213.879 6.58527 212.379 6.4232 210.874 6.41721C208.565 6.37042 206.271 6.80239 204.137 7.68592C202.003 8.56945 200.075 9.88538 198.474 11.5508C196.788 13.1603 195.455 15.1023 194.559 17.2539C193.662 19.4054 193.222 21.7196 193.266 24.05C193.291 26.3225 193.763 28.5678 194.657 30.6574C195.551 32.7469 196.848 34.6395 198.474 36.2268Z" fill="#085EA7"/>
<path id="Vector_17" d="M26.685 47.1634C30.1969 47.1602 33.6737 46.4651 36.9168 45.1178C40.1599 43.7704 43.1058 41.7973 45.5862 39.3112C48.0666 36.8251 50.0328 33.8746 51.3726 30.6284C52.7124 27.3821 53.3995 23.9037 53.3946 20.3919C53.3956 16.7735 52.6607 13.1928 51.2346 9.8674C49.8085 6.54198 47.721 3.54133 45.099 1.04785C47.6096 4.754 48.9409 9.13265 48.9182 13.609C48.9183 19.5094 46.582 25.1697 42.4203 29.3523C38.2586 33.535 32.6101 35.8996 26.7098 35.9291C20.7902 35.9291 15.113 33.5775 10.9272 29.3917C6.74137 25.2059 4.3898 19.5287 4.3898 13.609C4.36708 9.13265 5.6984 4.754 8.20901 1.04785C5.61081 3.55558 3.54394 6.56062 2.13153 9.88393C0.719125 13.2072 -0.0099285 16.7809 -0.0121955 20.3919C-0.0187811 27.4813 2.78946 34.2833 7.79545 39.3032C12.8014 44.3231 19.5956 47.1503 26.685 47.1634Z" fill="#085EA7"/>
<path id="Vector_18" d="M27.0196 28.799C29.1314 28.7974 31.222 28.3786 33.1715 27.5667C35.121 26.7548 36.8909 25.5658 38.3795 24.0679C39.8682 22.57 41.0463 20.7929 41.8461 18.8384C42.646 16.8839 43.0518 14.7907 43.0404 12.679C43.0571 10.509 42.6251 8.35896 41.7715 6.36382C40.918 4.36867 39.6613 2.57147 38.0804 1.08496C39.5846 3.30079 40.3803 5.92126 40.362 8.59936C40.3685 10.3574 40.0285 12.0996 39.3613 13.7262C38.6942 15.3527 37.713 16.8319 36.4739 18.0791C35.2348 19.3263 33.762 20.317 32.1398 20.9947C30.5175 21.6724 28.7777 22.0237 27.0196 22.0286C23.4819 22.0089 20.0959 20.5889 17.6025 18.0792C15.109 15.5695 13.711 12.1743 13.7144 8.63656C13.6917 5.95966 14.483 3.33907 15.9836 1.12216C14.4085 2.61326 13.1558 4.41135 12.3027 6.40543C11.4497 8.39952 11.0143 10.5473 11.0236 12.7162C11.0333 16.9636 12.7189 21.0356 15.7142 24.0471C18.7094 27.0586 22.7723 28.7663 27.0196 28.799Z" fill="#085EA7"/>
</g>
<defs>
<clipPath id="clip0_115_961">
<rect width="220.956" height="46.376" fill="white" transform="translate(0 0.799805)"/>
</clipPath>
</defs>
</svg>
