<svg width="101" height="28" viewBox="0 0 101 28" fill="none" xmlns="http://www.w3.org/2000/svg">
<g id="Logo" opacity="0.6" clip-path="url(#clip0_117_1606)">
<g id="Group">
<path id="Vector" d="M23.655 6.33727L17.553 2.79996V5.01809L22.6981 8.00116V20.0528L12.306 26.0787L1.91273 20.0528V8.00116L7.12696 4.97789V2.75977L0.956972 6.33727C0.365081 6.68076 0 7.31538 0 8.00116V20.0528C0 20.7398 0.365081 21.3732 0.956972 21.7167L11.349 27.7426C11.645 27.9143 11.9749 27.9996 12.306 27.9996C12.6371 27.9996 12.967 27.9143 13.263 27.7426L23.655 21.7167C24.2469 21.3732 24.612 20.7386 24.612 20.0528V8.00116C24.612 7.31417 24.2469 6.68076 23.655 6.33727Z" fill="white"/>
<g id="Group_2">
<path id="Vector_2" d="M10.6144 6.56423H13.9971V3.21939L16.1779 4.48375V2.26563L12.2712 0L8.43359 2.22421V4.44356L10.6144 3.17919V6.56423Z" fill="white"/>
<path id="Vector_3" d="M13.997 7.97266H10.6142C10.6142 13.3334 7.08106 14.3603 3.44238 14.3603V19.1546L12.3062 24.2937L21.17 19.1546V14.3603C16.6399 14.3603 13.9982 12.8377 13.9982 7.97266H13.997Z" fill="white"/>
</g>
</g>
<path id="Vector_4" d="M101 19.6455H81.9614V20.4141H101V19.6455Z" fill="white"/>
<path id="Vector_5" d="M51.7141 19.6455H32.6753V20.4141H51.7141V19.6455Z" fill="white"/>
<g id="Group_3">
<path id="Vector_6" d="M63.7622 6.27181H63.5487L63.5439 6.27668C63.5366 6.27668 63.5293 6.27668 63.5269 6.2779C63.3413 6.46305 61.5559 8.61905 61.4844 8.71284C61.6505 8.92966 62.5493 10.0016 62.6063 10.0503C62.6087 10.0466 62.6124 10.0442 62.6148 10.0405L62.6378 10.0673L65.8265 6.27059H65.6604C65.0745 6.25963 64.1843 6.26328 63.7634 6.27059L63.7622 6.27181Z" fill="white"/>
<path id="Vector_7" d="M58.2517 6.27207C57.7859 6.26476 56.7028 6.25989 56.2734 6.27207H56.1982L56.2007 6.2745C56.2007 6.2745 56.1995 6.2745 56.1982 6.2745C57.4026 7.74594 58.6446 9.18206 59.8527 10.6511C58.6374 12.1055 57.4172 13.5525 56.2031 15.0081C56.2043 15.0094 56.2067 15.0094 56.2079 15.0106L56.1982 15.0228H58.4748L60.9989 12.0178C61.6429 12.751 62.7976 14.1738 63.5193 15.0179C63.5278 15.0179 63.5362 15.0179 63.5435 15.0179L63.5472 15.0228H65.8238L58.4736 6.27207H58.2492H58.2517Z" fill="white"/>
<path id="Vector_8" d="M48.5244 6.27637L44.084 15.0234H46.2708L49.8185 8.03527L51.6888 11.7175H48.9319L48.0877 13.3814H52.533L53.3663 15.0234H55.5531L51.1127 6.27637H48.5244Z" fill="white"/>
<path id="Vector_9" d="M70.6621 6.27637L66.2217 15.0234H68.4085L71.9562 8.03527L73.8265 11.7175H71.0696L70.2254 13.3814H74.6707L75.504 15.0234H77.6908L73.2504 6.27637H70.6621Z" fill="white"/>
<path id="Vector_10" d="M93.9726 6.27637L89.5322 15.0234H91.7191L95.2668 8.03527L97.1359 11.7175H94.3802L93.5348 13.3814H97.98L98.8145 15.0234H101L96.5597 6.27637H93.9726Z" fill="white"/>
<path id="Vector_11" d="M89.0944 8.12905C89.0944 7.09977 88.2635 6.2666 87.2399 6.2666H79.1826V7.92441H86.557C86.9645 7.92441 87.2944 8.25573 87.2944 8.665V9.98905C87.2944 10.3983 86.9645 10.7296 86.557 10.7296H81.0104V8.8672H79.1826V15.0197H81.0104V12.3875H87.2411C88.266 12.3875 89.0956 11.5531 89.0956 10.525V8.13148L89.0944 8.12905Z" fill="white"/>
<path id="Vector_12" d="M41.0275 6.26758H34.6101C33.5415 6.26758 32.6743 7.13729 32.6743 8.21163V13.0779C32.6743 14.151 33.5403 15.0219 34.6101 15.0219H41.0275C41.8887 15.0219 42.5873 14.3203 42.5873 13.4555V11.8598H40.8444V12.8172C40.8444 13.1156 40.603 13.3568 40.307 13.3568H35.0528C34.7556 13.3568 34.5155 13.1144 34.5155 12.8172V8.46621C34.5155 8.16778 34.7569 7.9266 35.0528 7.9266H40.307C40.6042 7.9266 40.8444 8.169 40.8444 8.46621V9.27867H42.5873V7.83525C42.5873 6.97041 41.8887 6.2688 41.0275 6.2688V6.26758Z" fill="white"/>
</g>
<g id="Group_4">
<path id="Vector_13" d="M73.2041 17.9639V22.0944H74.0665V18.7459H77.6372V22.0944H78.5008V17.9639H73.2041Z" fill="white"/>
<g id="Group_5">
<path id="Vector_14" d="M55.1758 18.1161V18.7459V22.0944H56.0381V18.7459H58.9394V17.9639H55.1758V18.1161Z" fill="white"/>
<path id="Vector_15" d="M64.2228 17.9639H60.4204V18.7459H63.9002C64.0918 18.7459 64.2483 18.9018 64.2483 19.0955V19.7203C64.2483 19.9128 64.0931 20.0699 63.9002 20.0699H61.2828V19.1905H60.4204V22.0944H61.2828V20.8519H64.2228C64.7068 20.8519 65.0985 20.4585 65.0985 19.9725V18.8433C65.0985 18.3573 64.7068 17.9639 64.2228 17.9639Z" fill="white"/>
<path id="Vector_16" d="M70.5504 17.9663V19.7605H67.7753C67.6758 19.7605 67.5958 19.6801 67.5958 19.5803V17.9639H66.7334V19.8117C66.7334 20.21 67.0548 20.5316 67.4502 20.5316H70.5504V21.1309C70.5504 21.2308 70.4703 21.3112 70.3709 21.3112H66.7334C66.7334 21.7436 67.0827 22.0932 67.5133 22.0932H70.6341C71.0646 22.0932 71.4139 21.7424 71.4139 21.3112V17.9663H70.5516H70.5504Z" fill="white"/>
</g>
</g>
</g>
<defs>
<clipPath id="clip0_117_1606">
<rect width="101" height="28" fill="white"/>
</clipPath>
</defs>
</svg>
