<svg width="32" height="32" viewBox="0 0 32 32" fill="none" xmlns="http://www.w3.org/2000/svg">
<g id="simple-line-icons:location-pin" clip-path="url(#clip0_117_1555)">
<path id="Vector" d="M16.1145 -0.0117188C9.555 -0.0117188 4 5.57478 4 12.1928C4 19.1228 10.4385 26.2098 14.7695 31.1908C14.786 31.2108 15.486 31.9883 16.3485 31.9883H16.425C17.2875 31.9883 17.9825 31.2108 18 31.1908C22.0645 26.5183 28 18.8143 28 12.1928C28 5.57478 23.667 -0.0117188 16.1145 -0.0117188ZM16.5155 29.8493C16.4805 29.8843 16.4295 29.9233 16.3845 29.9558C16.3385 29.9243 16.2885 29.8843 16.2515 29.8493L15.7285 29.2478C11.6225 24.5373 6 18.0868 6 12.1928C6 6.66128 10.632 1.98778 16.1145 1.98778C22.9435 1.98778 26 7.11278 26 12.1928C26 16.6673 22.8085 22.6083 16.5155 29.8493ZM16.035 6.04378C12.7215 6.04378 10.035 8.73028 10.035 12.0438C10.035 15.3573 12.7215 18.0438 16.035 18.0438C19.3485 18.0438 22.035 15.3573 22.035 12.0438C22.035 8.73028 19.3485 6.04378 16.035 6.04378ZM16.035 16.0438C13.8295 16.0438 11.9889 14.2058 11.9889 11.9998C11.9889 9.79428 13.7834 7.99978 15.9889 7.99978C18.1959 7.99978 19.9889 9.79428 19.9889 11.9998C19.9899 14.2058 18.242 16.0438 16.035 16.0438Z" fill="white"/>
</g>
<defs>
<clipPath id="clip0_117_1555">
<rect width="32" height="32" fill="white"/>
</clipPath>
</defs>
</svg>
